<!--
Adapted from Material Design Icons
https://pictogrammers.com/library/mdi/icon/email-open-outline/
This version contains an additional clipPath definition, useful to make other
elements appear inside the envelope.
-->

<svg xmlns="http://www.w3.org/2000/svg" viewBox="0 0 24 24">
<title>email-open-outline</title>
<defs>
<clipPath id="envelope-clip" clipPathUnits="userSpaceOnUse">
<path d="M4,8 L0,8 L0,-12 L24,-12 L24,8 L20,8 L12,13 Z" /></clipPath>
</defs>
<path d="M21.03 6.29L12 .64L2.97 6.29C2.39 6.64 2 7.27 2 8V18C2 19.1 2.9 20 4 20H20C21.1 20 22 19.1 22 18V8C22 7.27 21.61 6.64 21.03 6.29M20 18H4V10L12 15L20 10V18M12 13L4 8L12 3L20 8L12 13Z" fill="currentColor" />
</svg>
